<svg style="display: none;" aria-hidden="true" xmlns="http://www.w3.org/2000/svg" xmlns:xlink="http://www.w3.org/1999/xlink"><symbol fill="none" viewBox="0 0 45 45" id="svg-Vector" xmlns="http://www.w3.org/2000/svg"><path d="M38.355 6.645a22.422 22.422 0 1 0-31.71 31.71 22.422 22.422 0 1 0 31.71-31.71ZM3.28 22.5c0-1.701.225-3.394.67-5.036.736 1.582 1.803 2.948 2.528 4.57.938 2.087 3.457 1.508 4.569 3.336.987 1.622-.067 3.674.671 5.372.537 1.232 1.802 1.501 2.675 2.402.892.91.873 2.154 1.01 3.34.153 1.392.402 2.772.745 4.13 0 .01 0 .022.008.032C8.667 38.016 3.28 30.876 3.28 22.5ZM22.5 41.719c-1.073 0-2.145-.09-3.203-.268.01-.272.016-.525.043-.701.243-1.592 1.04-3.148 2.115-4.34 1.062-1.174 2.518-1.97 3.414-3.303.88-1.3 1.142-3.053.78-4.573-.533-2.246-3.585-2.996-5.231-4.214-.946-.7-1.788-1.784-3.03-1.872-.573-.04-1.052.083-1.62-.063-.52-.135-.929-.416-1.483-.342-1.036.136-1.69 1.243-2.803 1.093-1.056-.142-2.144-1.378-2.384-2.384-.308-1.293.715-1.712 1.81-1.828.458-.047.972-.1 1.411.069.579.214.852.78 1.371 1.067.974.534 1.171-.32 1.022-1.184-.223-1.296-.483-1.823.672-2.715.8-.615 1.485-1.06 1.357-2.163-.076-.649-.431-.942-.1-1.588.252-.491.941-.935 1.39-1.228 1.16-.757 4.97-.7 3.414-2.819-.457-.621-1.301-1.733-2.102-1.885-1.001-.189-1.445.928-2.143 1.42-.72.51-2.124 1.089-2.846.301-.97-1.06.644-1.407 1.001-2.148.165-.345 0-.825-.278-1.276.36-.153.728-.294 1.1-.424.235.173.512.277.802.3.67.045 1.3-.318 1.885.139.65.5 1.116 1.133 1.977 1.289.833.151 1.715-.334 1.921-1.187.125-.519 0-1.066-.12-1.602a19.101 19.101 0 0 1 10.51 3.224c-.2-.076-.439-.067-.734.07-.608.283-1.469 1.001-1.54 1.714-.08.809 1.112.923 1.679.923.85 0 1.712-.38 1.438-1.363-.119-.427-.281-.87-.542-1.138.628.435 1.23.908 1.801 1.415l-.026.027c-.577.6-1.247 1.076-1.641 1.807-.278.514-.592.758-1.155.892-.31.073-.665.1-.925.308-.725.57-.313 1.942.374 2.353.868.52 2.155.275 2.81-.466.511-.58.813-1.589 1.733-1.588.405 0 .794.158 1.083.442.38.394.305.762.386 1.255.143.875.915.4 1.384-.041.343.609.651 1.236.925 1.879-.516.743-.927 1.554-2.169.687-.744-.52-1.201-1.273-2.135-1.507-.816-.2-1.652.008-2.457.147-.916.16-2.002.23-2.697.923-.672.669-1.027 1.563-1.742 2.235-1.382 1.301-1.965 2.722-1.07 4.562.86 1.768 2.66 2.728 4.604 2.602 1.909-.127 3.892-1.234 3.837 1.54-.02.982.185 1.661.486 2.573.28.841.26 1.656.324 2.524.061 1.016.22 2.024.475 3.01a19.194 19.194 0 0 1-15.158 7.42Z" fill="#404041"/></symbol></svg>