<svg width="45" height="45" viewBox="0 0 45 45" fill="none" xmlns="http://www.w3.org/2000/svg">
<path d="M38.3545 6.64547C36.2762 4.54658 33.8036 2.87902 31.0789 1.73859C28.3542 0.598159 25.4309 0.00733789 22.4771 6.79191e-05C19.5234 -0.00720205 16.5973 0.569222 13.8669 1.69623C11.1366 2.82323 8.65588 4.4786 6.56724 6.56724C4.4786 8.65588 2.82323 11.1366 1.69623 13.8669C0.569222 16.5973 -0.00720205 19.5234 6.79192e-05 22.4771C0.00733789 25.4309 0.598159 28.3541 1.73859 31.0789C2.87902 33.8036 4.54658 36.2762 6.64548 38.3545C8.72381 40.4534 11.1964 42.121 13.9211 43.2614C16.6459 44.4018 19.5691 44.9927 22.5229 44.9999C25.4766 45.0072 28.4027 44.4308 31.1331 43.3038C33.8634 42.1768 36.3441 40.5214 38.4328 38.4328C40.5214 36.3441 42.1768 33.8634 43.3038 31.1331C44.4308 28.4027 45.0072 25.4766 44.9999 22.5229C44.9927 19.5691 44.4019 16.6459 43.2614 13.9211C42.121 11.1964 40.4534 8.72381 38.3545 6.64547ZM3.28118 22.5C3.28046 20.799 3.50599 19.1056 3.95184 17.4641C4.68656 19.0456 5.7536 20.412 6.47931 22.0345C7.41723 24.1206 9.9357 23.542 11.0478 25.3698C12.0348 26.9924 10.9807 29.0444 11.7194 30.7421C12.256 31.9743 13.5212 32.2435 14.3941 33.1444C15.2859 34.0533 15.2669 35.2985 15.4031 36.4837C15.5567 37.8762 15.8058 39.2564 16.1488 40.6147C16.1488 40.6247 16.1488 40.6358 16.1568 40.6458C8.66646 38.0152 3.28118 30.8752 3.28118 22.5ZM22.5 41.7188C21.4267 41.7185 20.3553 41.6287 19.2969 41.4506C19.3079 41.1793 19.3129 40.926 19.3399 40.7499C19.5831 39.1583 20.3799 37.6018 21.455 36.4106C22.517 35.2355 23.9725 34.4407 24.8693 33.1074C25.7482 31.8061 26.0114 30.0544 25.6491 28.5339C25.1156 26.2877 22.0636 25.538 20.418 24.3198C19.472 23.6191 18.6302 22.536 17.388 22.4479C16.8154 22.4079 16.336 22.531 15.7684 22.3849C15.2479 22.2498 14.8395 21.9695 14.285 22.0426C13.2489 22.1787 12.5953 23.2858 11.4822 23.1356C10.4262 22.9945 9.33811 21.7583 9.09788 20.7523C8.78958 19.459 9.81258 19.0396 10.9087 18.9245C11.3661 18.8765 11.8796 18.8244 12.319 18.9926C12.8976 19.2068 13.1709 19.7733 13.6904 20.0596C14.6643 20.5941 14.8615 19.7403 14.7124 18.8755C14.4892 17.5802 14.2289 17.0527 15.384 16.1608C16.1848 15.5462 16.8695 15.1018 16.7414 13.9977C16.6653 13.349 16.3099 13.0558 16.6413 12.4101C16.8925 11.9186 17.5822 11.4752 18.0316 11.1819C19.1918 10.4252 23.0015 10.4812 21.445 8.36316C20.9875 7.74155 20.1437 6.63046 19.3429 6.47831C18.3419 6.28913 17.8975 7.40622 17.1998 7.8987C16.4791 8.4082 15.0757 8.98677 14.354 8.199C13.3831 7.13896 14.9977 6.79162 15.355 6.05089C15.5202 5.70555 15.355 5.22609 15.0767 4.77464C15.4378 4.62249 15.8048 4.48136 16.1778 4.35123C16.4116 4.5239 16.6889 4.6279 16.9786 4.65152C17.6483 4.69557 18.2799 4.33321 18.8644 4.78966C19.5131 5.29015 19.9805 5.92277 20.8414 6.07892C21.6742 6.23007 22.5561 5.74459 22.7623 4.89176C22.8874 4.37325 22.7623 3.82571 22.6421 3.29019C26.3858 3.31173 30.0407 4.43289 33.1524 6.51435C32.9522 6.43827 32.713 6.44728 32.4177 6.58441C31.8101 6.86669 30.9493 7.5854 30.8782 8.29809C30.7971 9.10688 31.9903 9.221 32.5569 9.221C33.4077 9.221 34.2695 8.84062 33.9953 7.85766C33.8761 7.43124 33.714 6.98781 33.4527 6.71955C34.0808 7.15533 34.6824 7.62796 35.2545 8.13493C35.2455 8.14394 35.2365 8.15195 35.2275 8.16196C34.6509 8.76255 33.9813 9.23801 33.5869 9.96873C33.3086 10.4832 32.9953 10.7275 32.4317 10.8606C32.1214 10.9337 31.7671 10.9607 31.5068 11.1689C30.7821 11.7395 31.1945 13.1108 31.8812 13.5222C32.749 14.0417 34.0363 13.7975 34.6909 13.0558C35.2024 12.4752 35.5037 11.4672 36.4236 11.4682C36.8286 11.4674 37.2177 11.6259 37.5067 11.9096C37.8871 12.304 37.812 12.6724 37.8931 13.1649C38.0362 14.0397 38.808 13.5653 39.2774 13.1238C39.6196 13.7328 39.9284 14.36 40.2023 15.0027C39.6858 15.7464 39.2754 16.5572 38.0332 15.6903C37.2895 15.1708 36.832 14.4171 35.8981 14.1829C35.0823 13.9827 34.2465 14.1909 33.4407 14.33C32.5248 14.4892 31.4388 14.5592 30.7441 15.2529C30.0724 15.9216 29.7171 16.8164 29.0024 17.4881C27.62 18.7894 27.0365 20.2098 27.9313 22.0496C28.7922 23.8183 30.5929 24.7782 32.5358 24.6521C34.4447 24.525 36.4277 23.4179 36.3726 26.1916C36.3526 27.1736 36.5578 27.8532 36.8591 28.7651C37.1383 29.606 37.1193 30.4208 37.1834 31.2886C37.2443 32.3049 37.4032 33.3128 37.6579 34.2986C35.8637 36.6086 33.5653 38.478 30.9382 39.764C28.3112 41.0501 25.425 41.7187 22.5 41.7188Z" fill="#404041"/>
</svg>
